<svg xmlns="http://www.w3.org/2000/svg" viewBox="0 0 512 512" role="img" aria-labelledby="title desc">
  <title id="title">TeaFlow icon</title>
  <desc id="desc">A calm tea cup with leaves and steam on a green background.</desc>
  <rect width="512" height="512" rx="112" fill="#276b54"/>
  <circle cx="256" cy="258" r="176" fill="#eef5f1" opacity="0.16"/>
  <path d="M169 270h170v38c0 54-38 96-86 96s-84-42-84-96v-38Z" fill="#f8fcfa"/>
  <path d="M339 286h30c25 0 45 20 45 45s-20 45-45 45h-42v-31h42c8 0 15-6 15-14s-7-14-15-14h-30v-31Z" fill="#f8fcfa"/>
  <path d="M143 395h220c14 0 25 11 25 25v4H118v-4c0-14 11-25 25-25Z" fill="#e8bc7c"/>
  <path d="M222 149c-20-29-11-63 28-86 21 37 14 69-28 86Z" fill="#d7eee3"/>
  <path d="M283 151c7-36 35-58 82-58-5 44-29 67-82 58Z" fill="#d7eee3"/>
  <path d="M212 216c-34-42-10-84 41-99 22 49 8 82-41 99Z" fill="#f8fcfa" opacity="0.95"/>
  <path d="M274 219c-6-55 29-88 85-84-4 56-32 84-85 84Z" fill="#f8fcfa" opacity="0.95"/>
  <path d="M238 116c-5 34 6 67 33 101" fill="none" stroke="#276b54" stroke-width="14" stroke-linecap="round" opacity="0.35"/>
  <path d="M335 146c-35 18-59 42-72 72" fill="none" stroke="#276b54" stroke-width="14" stroke-linecap="round" opacity="0.35"/>
  <path d="M203 238h111" fill="none" stroke="#276b54" stroke-width="14" stroke-linecap="round" opacity="0.28"/>
</svg>
